<?xml version="1.0" encoding="UTF-8"?>
<svg width="85px" height="84px" viewBox="0 0 85 84" version="1.1" xmlns="http://www.w3.org/2000/svg" xmlns:xlink="http://www.w3.org/1999/xlink">
    <title>Group 10</title>
    <g id="Page-1" stroke="none" stroke-width="1" fill="none" fill-rule="evenodd">
        <g id="Pricing-Table" transform="translate(-1214.000000, -518.000000)">
            <g id="Group" transform="translate(1033.000000, 492.000000)">
                <g id="Group-10" transform="translate(181.000000, 26.000000)">
                    <polygon id="Shape" fill="#D6D5D5" points="19.7833095 43.68 11.7821782 55.837596 27.3417872 71.2624308 39.6057395 63.3305246"></polygon>
                    <polygon id="Shape" fill="#D0C8C8" points="66.3477336 42.9481875 40.8181467 17.64 18.2444597 21.1356897 4.20792079 35.0505 22.4868986 35.8124375 48.0164855 61.120625 48.7849242 79.2410826 62.8214631 65.3262723"></polygon>
                    <path d="M83.1802386,1.16925689 C68.0918839,-2.98164043 54.0338123,4.75473011 47.4360883,11.2952368 C45.4647761,13.2492904 15.990099,42.4683551 15.990099,42.4683551 L41.519686,67.7765426 C41.519686,67.7765426 68.2031637,41.3244712 72.9655109,36.6034243 C79.5630705,30.0629176 87.3672842,16.1265984 83.1802386,1.16925689 Z" id="Shape" fill="#F4F4F4"></path>
                    <path d="M24.9764755,58.7081853 C24.2157623,57.9540692 24.2157623,56.7311562 24.9764755,55.9770402 L52.0628287,29.1255871 C52.8235419,28.371471 54.0571531,28.371471 54.8178663,29.1255871 C55.5785794,29.8797031 55.5785794,31.1026161 54.8178663,31.8567321 L27.731513,58.7081853 C26.9706354,59.4623013 25.7371887,59.4624643 24.9764755,58.7081853 Z" id="Shape" fill="#D6D5D5"></path>
                    <ellipse id="Oval" fill="#FFFFFF" cx="66.1097231" cy="18.0564018" rx="7.19883199" ry="7.13640179"></ellipse>
                    <path d="M0.570534886,70.3058437 C-0.190178295,69.5517277 -0.190178295,68.3288147 0.570534886,67.5746987 L8.00573368,60.2039799 C8.76644686,59.4498638 10.000058,59.4498638 10.7607712,60.2039799 C11.5214844,60.958096 11.5214844,62.1810089 10.7607712,62.935125 L3.3255724,70.3058437 C2.56485922,71.0599598 1.33124807,71.0601228 0.570534886,70.3058437 Z" id="Shape" fill="#D6D5D5"></path>
                    <path d="M13.1942973,82.9058438 C12.4335841,82.1517277 12.4335841,80.9288147 13.1942973,80.1746987 L20.6294961,72.8039799 C21.3902092,72.0498638 22.6238204,72.0498638 23.3845336,72.8039799 C24.1452468,73.558096 24.1452468,74.7810089 23.3845336,75.535125 L15.9493348,82.9058438 C15.1884572,83.6601228 13.9550104,83.6601228 13.1942973,82.9058438 Z" id="Shape" fill="#D6D5D5"></path>
                    <path d="M3.93687152,79.1540759 C3.17615834,78.3999598 3.17615834,77.1770469 3.93687152,76.4229308 L14.366269,66.0839799 C15.1269821,65.3298638 16.3605933,65.3298638 17.1213065,66.0839799 C17.8820196,66.838096 17.8820196,68.0610089 17.1213065,68.815125 L6.69190903,79.1540759 C5.93119585,79.908192 4.69774907,79.908192 3.93687152,79.1540759 Z" id="Shape" fill="#C3AFB1"></path>
                </g>
            </g>
        </g>
    </g>
</svg>