<?xml version="1.0" encoding="UTF-8"?>
<svg width="87px" height="80px" viewBox="0 0 87 80" version="1.1" xmlns="http://www.w3.org/2000/svg" xmlns:xlink="http://www.w3.org/1999/xlink">
    <title>Group 9</title>
    <g id="Page-1" stroke="none" stroke-width="1" fill="none" fill-rule="evenodd">
        <g id="Pricing-Table" transform="translate(-793.000000, -605.000000)">
            <g id="Group-9" transform="translate(793.000000, 605.000000)">
                <path d="M29.5912045,51 C28.7111414,51 28,50.3000519 28,49.4370448 L28,32.5627877 C28,31.6999481 28.7113119,31 29.5912045,31 L58.4087955,31 C59.2873245,31 60,31.6999481 60,32.5627877 L60,49.4372123 C60,50.3000519 59.2873245,51 58.4087955,51 L29.5912045,51 Z" id="Shape" fill="#E0E0E0"></path>
                <polygon id="Shape" fill="#C3AFB1" points="48 57 48 51 39 51 39 57"></polygon>
                <path d="M45,30.5000439 L45,21.4999561 C45,20.6704362 45.6704559,20 46.5,20 C47.3295441,20 48,20.6704362 48,21.4999561 L48,30.5000439 C48,31.329388 47.3295441,32 46.5,32 C45.6704559,32 45,31.3295638 45,30.5000439 Z" id="Shape" fill="#D6D5D5"></path>
                <path d="M39,30.5000586 L39,24.4999414 C39,23.6704297 39.6704559,23 40.5,23 C41.3295441,23 41.9999999,23.6704297 41.9999999,24.4999414 L41.9999999,30.4998828 C42.0001757,31.3293945 41.3295441,32 40.5,32 C39.6704559,32 39,31.3295703 39,30.5000586 Z" id="Shape" fill="#D6D5D5"></path>
                <path d="M37.3999508,39 C36.6257368,39 36,38.3295441 36,37.5 C36,36.6704559 36.6257368,36 37.3999508,36 L48.6000492,36 C49.3742632,36 50,36.6704559 50,37.5 C50,38.3295441 49.3742632,39 48.6000492,39 L37.3999508,39 Z" id="Shape" fill="#D6D5D5"></path>
                <path d="M33.4374474,45 C32.6424967,45 32,44.3295441 32,43.5 C32,42.6704559 32.6424967,42 33.4374474,42 L53.5625526,42 C54.3575033,42 55,42.6704559 55,43.5 C55,44.3295441 54.3573349,45 53.5623842,45 L33.4374474,45 Z" id="Shape" fill="#C3AFB1"></path>
                <path d="M10,45.099949 L10,21.900051 C10,20.3049975 11.3499736,19 13,19 C14.6500264,19 16,20.3049975 16,21.900051 L16,45.099949 C16,46.6950025 14.6500264,48 13,48 C11.3499736,48 10,46.6950025 10,45.099949 Z" id="Shape" fill="#F4F4F4"></path>
                <path d="M11.9230657,12 C10.860985,12 10,11.139015 10,10.0785164 L10,1.92148361 C10,0.860984971 10.860985,0 11.9230657,0 L14.0785164,0 C15.1405971,0 16,0.860984971 16,1.92148361 L16,10.0785164 C16,11.139015 15.1405971,12 14.0785164,12 L11.9230657,12 Z" id="Shape" fill="#F4F4F4"></path>
                <path d="M15.9680661,80 C14.8804969,80 14,79.1782174 14,78.1646472 L14,73 L20,73 L20,78.1644831 C20,79.1782174 19.1195031,80 18.033516,80 L15.9680661,80 Z" id="Shape" fill="#F4F4F4"></path>
                <path d="M35.0928541,77 C34.4885031,77 34,76.5114969 34,75.9071459 L34,58.0928541 C34,57.4885031 34.4885031,57 35.0928541,57 L52.9071459,57 C53.5099902,57 54,57.4885031 54,58.0928541 L54,75.9071459 C53.9998326,76.5114969 53.5098228,77 52.9069785,77 L35.0928541,77 Z" id="Shape" fill="#F4F4F4"></path>
                <path d="M77,45.099949 L77,21.900051 C77,20.3049975 75.6500264,19 74,19 C72.3499736,19 71,20.3049975 71,21.900051 L71,45.099949 C71,46.6950025 72.3499736,48 74,48 C75.6500264,48 77,46.6950025 77,45.099949 Z" id="Shape" fill="#F4F4F4"></path>
                <path d="M75.0769343,12 C76.139015,12 77,11.139015 77,10.0785164 L77,1.92148361 C77,0.860984971 76.139015,0 75.0769343,0 L72.9214836,0 C71.8594029,0 71,0.860984971 71,1.92148361 L71,10.0785164 C71,11.139015 71.8595787,12 72.9214836,12 L75.0769343,12 Z" id="Shape" fill="#F4F4F4"></path>
                <path d="M71.0319339,80 C72.1195031,80 73,79.1782174 73,78.1646472 L73,73 L67,73 L67,78.1644831 C67,79.1782174 67.8804969,80 68.966484,80 L71.0319339,80 Z" id="Shape" fill="#F4F4F4"></path>
                <polygon id="Shape" fill="#D6D5D5" points="28 47 16 36.7692571 16 28 28 36.7692571"></polygon>
                <path d="M1.44439742,7 C0.645603161,7 0,6.32954412 0,5.5 C0,4.67045588 0.645603161,4 1.44439742,4 L24.5556026,4 C25.3543968,4 26,4.67045588 26,5.5 C26,6.32954412 25.3545661,7 24.5557718,7 L1.44439742,7 Z" id="Shape" fill="#D6D5D5"></path>
                <polygon id="Shape" fill="#F4F4F4" points="12 19 15 19 15 12 12 12"></polygon>
                <path d="M27.8572146,47 C23.1199672,47 15,61.0240885 15,73 L20.7142618,73 C20.7142618,61.0240885 30.26292,51.3333333 35,51.3333333 L29.2857382,51.3333333 C28.423066,51.3333333 27.8572146,50.7613672 27.8572146,49.8889453 L27.8572146,47 Z" id="Shape" fill="#D6D5D5"></path>
                <polygon id="Shape" fill="#D6D5D5" points="59 47 71 36.7692571 71 28 59 36.7692571"></polygon>
                <path d="M62.4443974,7 C61.6456032,7 61,6.32954412 61,5.5 C61,4.67045588 61.6456032,4 62.4443974,4 L85.5556026,4 C86.3543968,4 87,4.67045588 87,5.5 C87,6.32954412 86.3545661,7 85.5557718,7 L62.4443974,7 Z" id="Shape" fill="#D6D5D5"></path>
                <polygon id="Shape" fill="#F4F4F4" points="72 19 75 19 75 12 72 12"></polygon>
                <path d="M59.1427854,47 C63.8800328,47 72,61.0240885 72,73 L66.2857382,73 C66.2857382,61.0240885 56.73708,51.3333333 52,51.3333333 L57.7142618,51.3333333 C58.576934,51.3333333 59.1427854,50.7613672 59.1427854,49.8889453 L59.1427854,47 Z" id="Shape" fill="#D6D5D5"></path>
                <path d="M43.5,71 C41.0144531,71 39,68.9855469 39,66.5 C39,64.0144531 41.0144531,62 43.5,62 C45.9855469,62 48,64.0144531 48,66.5 C48,68.9855469 45.9855469,71 43.5,71 Z" id="Shape" fill="#C3AFB1"></path>
            </g>
        </g>
    </g>
</svg>